<?xml version="1.0" encoding="UTF-8" standalone="no"?>
<!-- Created with Inkscape (http://www.inkscape.org/) -->

<svg
   width="297mm"
   height="210mm"
   viewBox="0 0 297 210"
   version="1.1"
   id="svg1"
   inkscape:version="1.4.2 (f4327f4, 2025-05-13)"
   sodipodi:docname="GrassyBackground.svg"
   xmlns:inkscape="http://www.inkscape.org/namespaces/inkscape"
   xmlns:sodipodi="http://sodipodi.sourceforge.net/DTD/sodipodi-0.dtd"
   xmlns="http://www.w3.org/2000/svg"
   xmlns:svg="http://www.w3.org/2000/svg">
  <sodipodi:namedview
     id="namedview1"
     pagecolor="#ffffff"
     bordercolor="#000000"
     borderopacity="0.25"
     inkscape:showpageshadow="2"
     inkscape:pageopacity="0.0"
     inkscape:pagecheckerboard="0"
     inkscape:deskcolor="#d1d1d1"
     inkscape:document-units="mm"
     inkscape:zoom="0.35355339"
     inkscape:cx="377.59502"
     inkscape:cy="-124.45079"
     inkscape:window-width="1388"
     inkscape:window-height="1000"
     inkscape:window-x="516"
     inkscape:window-y="0"
     inkscape:window-maximized="0"
     inkscape:current-layer="layer7"
     showgrid="false"
     showguides="false" />
  <defs
     id="defs1" />
  <g
     inkscape:groupmode="layer"
     id="layer7"
     inkscape:label="Background">
    <rect
       style="fill:#aae4f4;fill-opacity:1;stroke-width:0.264583"
       id="rect25"
       width="380.16415"
       height="301.58691"
       x="-35.921021"
       y="-59.868374"
       rx="0.063000001" />
  </g>
  <g
     inkscape:groupmode="layer"
     id="layer6"
     inkscape:label="BackTrees">
    <g
       id="g12-8-8"
       inkscape:label="Tree"
       transform="matrix(0.17370466,0,0,0.17370466,180.56958,19.127338)">
      <rect
         style="fill:#642c00;fill-opacity:1;stroke-width:0.289836"
         id="rect9-2-2"
         width="11.040893"
         height="86.855019"
         x="72.501854"
         y="90.535316"
         rx="0.60000002" />
      <path
         sodipodi:type="star"
         style="fill:#00ce17;fill-opacity:1;stroke-width:0.264583"
         id="path10-4-4"
         inkscape:flatsided="true"
         sodipodi:sides="3"
         sodipodi:cx="71.397774"
         sodipodi:cy="55.20446"
         sodipodi:r1="32.920738"
         sodipodi:r2="15.527192"
         sodipodi:arg1="0.51425664"
         sodipodi:arg2="1.5614542"
         inkscape:rounded="0.1"
         inkscape:randomized="0"
         d="m 100.0605,71.397769 c -2.804765,4.964529 -54.120878,5.443945 -57.017905,0.532684 -2.897027,-4.911261 22.345843,-49.592026 28.047633,-49.645294 5.701791,-0.05327 31.775032,44.14808 28.970272,49.11261 z"
         inkscape:transform-center-x="0.42878567"
         inkscape:transform-center-y="-7.116859"
         transform="matrix(1.1068977,0,0,0.95840857,-1.1109954,27.05698)" />
      <path
         sodipodi:type="star"
         style="fill:#00ce17;fill-opacity:1;stroke-width:0.264583"
         id="path11-5-5"
         inkscape:flatsided="true"
         sodipodi:sides="3"
         sodipodi:cx="71.397774"
         sodipodi:cy="55.20446"
         sodipodi:r1="32.920738"
         sodipodi:r2="15.527192"
         sodipodi:arg1="0.51425664"
         sodipodi:arg2="1.5614542"
         inkscape:rounded="0.1"
         inkscape:randomized="0"
         d="m 100.0605,71.397769 c -2.804765,4.964529 -54.120878,5.443945 -57.017905,0.532684 -2.897027,-4.911261 22.345843,-49.592026 28.047633,-49.645294 5.701791,-0.05327 31.775032,44.14808 28.970272,49.11261 z"
         inkscape:transform-center-x="0.55284586"
         inkscape:transform-center-y="-7.116859"
         transform="matrix(1.4271525,0,0,0.95840857,-23.654438,51.714974)" />
      <path
         sodipodi:type="star"
         style="fill:#00ce17;fill-opacity:1;stroke-width:0.264583"
         id="path12-5-5"
         inkscape:flatsided="true"
         sodipodi:sides="3"
         sodipodi:cx="71.397774"
         sodipodi:cy="55.20446"
         sodipodi:r1="32.920738"
         sodipodi:r2="15.527192"
         sodipodi:arg1="0.51425664"
         sodipodi:arg2="1.5614542"
         inkscape:rounded="0.1"
         inkscape:randomized="0"
         d="m 100.0605,71.397769 c -2.804765,4.964529 -54.120878,5.443945 -57.017905,0.532684 -2.897027,-4.911261 22.345843,-49.592026 28.047633,-49.645294 5.701791,-0.05327 31.775032,44.14808 28.970272,49.11261 z"
         inkscape:transform-center-x="0.62231927"
         inkscape:transform-center-y="-7.116859"
         transform="matrix(1.6064952,0,0,0.95840857,-36.116834,75.636906)" />
    </g>
    <g
       id="g22"
       inkscape:label="Tree"
       transform="matrix(0.17370466,0,0,0.17370466,112.28222,47.307569)">
      <rect
         style="fill:#642c00;fill-opacity:1;stroke-width:0.289836"
         id="rect19"
         width="11.040893"
         height="86.855019"
         x="72.501854"
         y="90.535316"
         rx="0.60000002" />
      <path
         sodipodi:type="star"
         style="fill:#00ce17;fill-opacity:1;stroke-width:0.264583"
         id="path20"
         inkscape:flatsided="true"
         sodipodi:sides="3"
         sodipodi:cx="71.397774"
         sodipodi:cy="55.20446"
         sodipodi:r1="32.920738"
         sodipodi:r2="15.527192"
         sodipodi:arg1="0.51425664"
         sodipodi:arg2="1.5614542"
         inkscape:rounded="0.1"
         inkscape:randomized="0"
         d="m 100.0605,71.397769 c -2.804765,4.964529 -54.120878,5.443945 -57.017905,0.532684 -2.897027,-4.911261 22.345843,-49.592026 28.047633,-49.645294 5.701791,-0.05327 31.775032,44.14808 28.970272,49.11261 z"
         inkscape:transform-center-x="0.42878567"
         inkscape:transform-center-y="-7.116859"
         transform="matrix(1.1068977,0,0,0.95840857,-1.1109954,27.05698)" />
      <path
         sodipodi:type="star"
         style="fill:#00ce17;fill-opacity:1;stroke-width:0.264583"
         id="path21"
         inkscape:flatsided="true"
         sodipodi:sides="3"
         sodipodi:cx="71.397774"
         sodipodi:cy="55.20446"
         sodipodi:r1="32.920738"
         sodipodi:r2="15.527192"
         sodipodi:arg1="0.51425664"
         sodipodi:arg2="1.5614542"
         inkscape:rounded="0.1"
         inkscape:randomized="0"
         d="m 100.0605,71.397769 c -2.804765,4.964529 -54.120878,5.443945 -57.017905,0.532684 -2.897027,-4.911261 22.345843,-49.592026 28.047633,-49.645294 5.701791,-0.05327 31.775032,44.14808 28.970272,49.11261 z"
         inkscape:transform-center-x="0.55284586"
         inkscape:transform-center-y="-7.116859"
         transform="matrix(1.4271525,0,0,0.95840857,-23.654438,51.714974)" />
      <path
         sodipodi:type="star"
         style="fill:#00ce17;fill-opacity:1;stroke-width:0.264583"
         id="path22"
         inkscape:flatsided="true"
         sodipodi:sides="3"
         sodipodi:cx="71.397774"
         sodipodi:cy="55.20446"
         sodipodi:r1="32.920738"
         sodipodi:r2="15.527192"
         sodipodi:arg1="0.51425664"
         sodipodi:arg2="1.5614542"
         inkscape:rounded="0.1"
         inkscape:randomized="0"
         d="m 100.0605,71.397769 c -2.804765,4.964529 -54.120878,5.443945 -57.017905,0.532684 -2.897027,-4.911261 22.345843,-49.592026 28.047633,-49.645294 5.701791,-0.05327 31.775032,44.14808 28.970272,49.11261 z"
         inkscape:transform-center-x="0.62231927"
         inkscape:transform-center-y="-7.116859"
         transform="matrix(1.6064952,0,0,0.95840857,-36.116834,75.636906)" />
    </g>
    <g
       id="g25"
       inkscape:label="Tree"
       transform="matrix(0.12249857,0,0,0.12249857,41.019242,-1.2716916)">
      <rect
         style="fill:#642c00;fill-opacity:1;stroke-width:0.289836"
         id="rect22"
         width="11.040893"
         height="86.855019"
         x="72.501854"
         y="90.535316"
         rx="0.60000002" />
      <path
         sodipodi:type="star"
         style="fill:#00ce17;fill-opacity:1;stroke-width:0.264583"
         id="path23"
         inkscape:flatsided="true"
         sodipodi:sides="3"
         sodipodi:cx="71.397774"
         sodipodi:cy="55.20446"
         sodipodi:r1="32.920738"
         sodipodi:r2="15.527192"
         sodipodi:arg1="0.51425664"
         sodipodi:arg2="1.5614542"
         inkscape:rounded="0.1"
         inkscape:randomized="0"
         d="m 100.0605,71.397769 c -2.804765,4.964529 -54.120878,5.443945 -57.017905,0.532684 -2.897027,-4.911261 22.345843,-49.592026 28.047633,-49.645294 5.701791,-0.05327 31.775032,44.14808 28.970272,49.11261 z"
         inkscape:transform-center-x="0.42878567"
         inkscape:transform-center-y="-7.116859"
         transform="matrix(1.1068977,0,0,0.95840857,-1.1109954,27.05698)" />
      <path
         sodipodi:type="star"
         style="fill:#00ce17;fill-opacity:1;stroke-width:0.264583"
         id="path24"
         inkscape:flatsided="true"
         sodipodi:sides="3"
         sodipodi:cx="71.397774"
         sodipodi:cy="55.20446"
         sodipodi:r1="32.920738"
         sodipodi:r2="15.527192"
         sodipodi:arg1="0.51425664"
         sodipodi:arg2="1.5614542"
         inkscape:rounded="0.1"
         inkscape:randomized="0"
         d="m 100.0605,71.397769 c -2.804765,4.964529 -54.120878,5.443945 -57.017905,0.532684 -2.897027,-4.911261 22.345843,-49.592026 28.047633,-49.645294 5.701791,-0.05327 31.775032,44.14808 28.970272,49.11261 z"
         inkscape:transform-center-x="0.55284586"
         inkscape:transform-center-y="-7.116859"
         transform="matrix(1.4271525,0,0,0.95840857,-23.654438,51.714974)" />
      <path
         sodipodi:type="star"
         style="fill:#00ce17;fill-opacity:1;stroke-width:0.264583"
         id="path25"
         inkscape:flatsided="true"
         sodipodi:sides="3"
         sodipodi:cx="71.397774"
         sodipodi:cy="55.20446"
         sodipodi:r1="32.920738"
         sodipodi:r2="15.527192"
         sodipodi:arg1="0.51425664"
         sodipodi:arg2="1.5614542"
         inkscape:rounded="0.1"
         inkscape:randomized="0"
         d="m 100.0605,71.397769 c -2.804765,4.964529 -54.120878,5.443945 -57.017905,0.532684 -2.897027,-4.911261 22.345843,-49.592026 28.047633,-49.645294 5.701791,-0.05327 31.775032,44.14808 28.970272,49.11261 z"
         inkscape:transform-center-x="0.62231927"
         inkscape:transform-center-y="-7.116859"
         transform="matrix(1.6064952,0,0,0.95840857,-36.116834,75.636906)" />
    </g>
  </g>
  <g
     inkscape:groupmode="layer"
     id="layer3"
     inkscape:label="Back">
    <path
       style="fill:#55d400;fill-opacity:0.502591;stroke-width:0.264583"
       d="M -47.475834,56.308549 C -18.401486,75.078067 4.4163568,68.0855 17.297398,51.524163 30.178439,34.962826 44.531598,6.6245352 65.509294,28.338289 c 20.977695,21.713756 36.066916,55.57249 68.821566,48.947956 32.75464,-6.624537 46.37174,-43.427509 83.17472,-19.137548 36.80297,24.289964 47.47583,36.066915 69.55762,28.70632 22.08178,-7.360594 35.33085,-31.650556 35.33085,-31.650556 l 6.62453,175.182149 H -51.524163 Z"
       id="path4" />
  </g>
  <g
     inkscape:groupmode="layer"
     id="layer5"
     inkscape:label="MiddleTrees"
     transform="matrix(0.77582374,0,0,0.77582374,16.608356,33.107141)">
    <g
       id="g12-8"
       inkscape:label="Tree"
       transform="matrix(0.30182338,0,0,0.30182338,56.666088,77.392033)">
      <rect
         style="fill:#642c00;fill-opacity:1;stroke-width:0.289836"
         id="rect9-2"
         width="11.040893"
         height="86.855019"
         x="72.501854"
         y="90.535316"
         rx="0.60000002" />
      <path
         sodipodi:type="star"
         style="fill:#00ce17;fill-opacity:1;stroke-width:0.264583"
         id="path10-4"
         inkscape:flatsided="true"
         sodipodi:sides="3"
         sodipodi:cx="71.397774"
         sodipodi:cy="55.20446"
         sodipodi:r1="32.920738"
         sodipodi:r2="15.527192"
         sodipodi:arg1="0.51425664"
         sodipodi:arg2="1.5614542"
         inkscape:rounded="0.1"
         inkscape:randomized="0"
         d="m 100.0605,71.397769 c -2.804765,4.964529 -54.120878,5.443945 -57.017905,0.532684 -2.897027,-4.911261 22.345843,-49.592026 28.047633,-49.645294 5.701791,-0.05327 31.775032,44.14808 28.970272,49.11261 z"
         inkscape:transform-center-x="0.42878567"
         inkscape:transform-center-y="-7.116859"
         transform="matrix(1.1068977,0,0,0.95840857,-1.1109954,27.05698)" />
      <path
         sodipodi:type="star"
         style="fill:#00ce17;fill-opacity:1;stroke-width:0.264583"
         id="path11-5"
         inkscape:flatsided="true"
         sodipodi:sides="3"
         sodipodi:cx="71.397774"
         sodipodi:cy="55.20446"
         sodipodi:r1="32.920738"
         sodipodi:r2="15.527192"
         sodipodi:arg1="0.51425664"
         sodipodi:arg2="1.5614542"
         inkscape:rounded="0.1"
         inkscape:randomized="0"
         d="m 100.0605,71.397769 c -2.804765,4.964529 -54.120878,5.443945 -57.017905,0.532684 -2.897027,-4.911261 22.345843,-49.592026 28.047633,-49.645294 5.701791,-0.05327 31.775032,44.14808 28.970272,49.11261 z"
         inkscape:transform-center-x="0.55284586"
         inkscape:transform-center-y="-7.116859"
         transform="matrix(1.4271525,0,0,0.95840857,-23.654438,51.714974)" />
      <path
         sodipodi:type="star"
         style="fill:#00ce17;fill-opacity:1;stroke-width:0.264583"
         id="path12-5"
         inkscape:flatsided="true"
         sodipodi:sides="3"
         sodipodi:cx="71.397774"
         sodipodi:cy="55.20446"
         sodipodi:r1="32.920738"
         sodipodi:r2="15.527192"
         sodipodi:arg1="0.51425664"
         sodipodi:arg2="1.5614542"
         inkscape:rounded="0.1"
         inkscape:randomized="0"
         d="m 100.0605,71.397769 c -2.804765,4.964529 -54.120878,5.443945 -57.017905,0.532684 -2.897027,-4.911261 22.345843,-49.592026 28.047633,-49.645294 5.701791,-0.05327 31.775032,44.14808 28.970272,49.11261 z"
         inkscape:transform-center-x="0.62231927"
         inkscape:transform-center-y="-7.116859"
         transform="matrix(1.6064952,0,0,0.95840857,-36.116834,75.636906)" />
    </g>
    <g
       id="g15"
       inkscape:label="Tree"
       transform="matrix(0.30182339,0,0,0.30182339,137.99475,35.107218)">
      <rect
         style="fill:#642c00;fill-opacity:1;stroke-width:0.289836"
         id="rect12"
         width="11.040893"
         height="86.855019"
         x="72.501854"
         y="90.535316"
         rx="0.60000002" />
      <path
         sodipodi:type="star"
         style="fill:#00ce17;fill-opacity:1;stroke-width:0.264583"
         id="path13"
         inkscape:flatsided="true"
         sodipodi:sides="3"
         sodipodi:cx="71.397774"
         sodipodi:cy="55.20446"
         sodipodi:r1="32.920738"
         sodipodi:r2="15.527192"
         sodipodi:arg1="0.51425664"
         sodipodi:arg2="1.5614542"
         inkscape:rounded="0.1"
         inkscape:randomized="0"
         d="m 100.0605,71.397769 c -2.804765,4.964529 -54.120878,5.443945 -57.017905,0.532684 -2.897027,-4.911261 22.345843,-49.592026 28.047633,-49.645294 5.701791,-0.05327 31.775032,44.14808 28.970272,49.11261 z"
         inkscape:transform-center-x="0.42878567"
         inkscape:transform-center-y="-7.116859"
         transform="matrix(1.1068977,0,0,0.95840857,-1.1109954,27.05698)" />
      <path
         sodipodi:type="star"
         style="fill:#00ce17;fill-opacity:1;stroke-width:0.264583"
         id="path14"
         inkscape:flatsided="true"
         sodipodi:sides="3"
         sodipodi:cx="71.397774"
         sodipodi:cy="55.20446"
         sodipodi:r1="32.920738"
         sodipodi:r2="15.527192"
         sodipodi:arg1="0.51425664"
         sodipodi:arg2="1.5614542"
         inkscape:rounded="0.1"
         inkscape:randomized="0"
         d="m 100.0605,71.397769 c -2.804765,4.964529 -54.120878,5.443945 -57.017905,0.532684 -2.897027,-4.911261 22.345843,-49.592026 28.047633,-49.645294 5.701791,-0.05327 31.775032,44.14808 28.970272,49.11261 z"
         inkscape:transform-center-x="0.55284586"
         inkscape:transform-center-y="-7.116859"
         transform="matrix(1.4271525,0,0,0.95840857,-23.654438,51.714974)" />
      <path
         sodipodi:type="star"
         style="fill:#00ce17;fill-opacity:1;stroke-width:0.264583"
         id="path15"
         inkscape:flatsided="true"
         sodipodi:sides="3"
         sodipodi:cx="71.397774"
         sodipodi:cy="55.20446"
         sodipodi:r1="32.920738"
         sodipodi:r2="15.527192"
         sodipodi:arg1="0.51425664"
         sodipodi:arg2="1.5614542"
         inkscape:rounded="0.1"
         inkscape:randomized="0"
         d="m 100.0605,71.397769 c -2.804765,4.964529 -54.120878,5.443945 -57.017905,0.532684 -2.897027,-4.911261 22.345843,-49.592026 28.047633,-49.645294 5.701791,-0.05327 31.775032,44.14808 28.970272,49.11261 z"
         inkscape:transform-center-x="0.62231927"
         inkscape:transform-center-y="-7.116859"
         transform="matrix(1.6064952,0,0,0.95840857,-36.116834,75.636906)" />
    </g>
    <g
       id="g18"
       inkscape:label="Tree"
       transform="matrix(0.30182339,0,0,0.30182339,297.91209,55.56859)">
      <path
         sodipodi:type="star"
         style="fill:#642c00;stroke-width:1.12992;fill-opacity:1"
         id="path19"
         inkscape:flatsided="true"
         sodipodi:sides="3"
         sodipodi:cx="73.010536"
         sodipodi:cy="172.53395"
         sodipodi:r1="4.1404243"
         sodipodi:r2="2.0702121"
         sodipodi:arg1="0.52359878"
         sodipodi:arg2="1.5707963"
         inkscape:rounded="0"
         inkscape:randomized="0"
         d="m 76.596249,174.60416 -7.171425,0 3.585712,-6.21063 z"
         transform="matrix(-1.5368341,-1.0129937,0.88729157,-1.7545565,35.302941,553.93967)"
         inkscape:transform-center-x="-0.43012776"
         inkscape:transform-center-y="-6.4738423e-06" />
      <rect
         style="fill:#642c00;fill-opacity:1;stroke-width:0.289836"
         id="rect16"
         width="11.040893"
         height="86.855019"
         x="72.501854"
         y="90.535316"
         rx="0.26904479" />
      <path
         sodipodi:type="star"
         style="fill:#00ce17;fill-opacity:1;stroke-width:0.264583"
         id="path16"
         inkscape:flatsided="true"
         sodipodi:sides="3"
         sodipodi:cx="71.397774"
         sodipodi:cy="55.20446"
         sodipodi:r1="32.920738"
         sodipodi:r2="15.527192"
         sodipodi:arg1="0.51425664"
         sodipodi:arg2="1.5614542"
         inkscape:rounded="0.1"
         inkscape:randomized="0"
         d="m 100.0605,71.397769 c -2.804765,4.964529 -54.120878,5.443945 -57.017905,0.532684 -2.897027,-4.911261 22.345843,-49.592026 28.047633,-49.645294 5.701791,-0.05327 31.775032,44.14808 28.970272,49.11261 z"
         inkscape:transform-center-x="0.42878567"
         inkscape:transform-center-y="-7.116859"
         transform="matrix(1.1068977,0,0,0.95840857,-1.1109954,27.05698)" />
      <path
         sodipodi:type="star"
         style="fill:#00ce17;fill-opacity:1;stroke-width:0.264583"
         id="path17"
         inkscape:flatsided="true"
         sodipodi:sides="3"
         sodipodi:cx="71.397774"
         sodipodi:cy="55.20446"
         sodipodi:r1="32.920738"
         sodipodi:r2="15.527192"
         sodipodi:arg1="0.51425664"
         sodipodi:arg2="1.5614542"
         inkscape:rounded="0.1"
         inkscape:randomized="0"
         d="m 100.0605,71.397769 c -2.804765,4.964529 -54.120878,5.443945 -57.017905,0.532684 -2.897027,-4.911261 22.345843,-49.592026 28.047633,-49.645294 5.701791,-0.05327 31.775032,44.14808 28.970272,49.11261 z"
         inkscape:transform-center-x="0.55284586"
         inkscape:transform-center-y="-7.116859"
         transform="matrix(1.4271525,0,0,0.95840857,-23.654438,51.714974)" />
      <path
         sodipodi:type="star"
         style="fill:#00ce17;fill-opacity:1;stroke-width:0.264583"
         id="path18"
         inkscape:flatsided="true"
         sodipodi:sides="3"
         sodipodi:cx="71.397774"
         sodipodi:cy="55.20446"
         sodipodi:r1="32.920738"
         sodipodi:r2="15.527192"
         sodipodi:arg1="0.51425664"
         sodipodi:arg2="1.5614542"
         inkscape:rounded="0.1"
         inkscape:randomized="0"
         d="m 100.0605,71.397769 c -2.804765,4.964529 -54.120878,5.443945 -57.017905,0.532684 -2.897027,-4.911261 22.345843,-49.592026 28.047633,-49.645294 5.701791,-0.05327 31.775032,44.14808 28.970272,49.11261 z"
         inkscape:transform-center-x="0.62231927"
         inkscape:transform-center-y="-7.116859"
         transform="matrix(1.6064952,0,0,0.95840857,-36.116834,75.636906)" />
    </g>
  </g>
  <g
     inkscape:groupmode="layer"
     id="layer2"
     inkscape:label="Middle">
    <path
       style="fill:#55d400;fill-opacity:0.502591;stroke-width:0.268449"
       d="m -26.582165,113.62748 c 0,0 -16.482256,-32.369798 11.475457,-38.898176 27.957713,-6.528374 44.911794,42.162046 70.327897,54.066746 25.416104,11.90468 34.112147,6.16898 64.014371,-18.97681 28.80745,-24.225164 71.72588,13.96933 109.12386,20.11369 37.39798,6.14436 83.45568,-55.859724 83.45568,-55.859724 l 6.89865,139.016004 -351.468396,-3.07218 z"
       id="path3"
       sodipodi:nodetypes="csssscccc" />
  </g>
  <g
     inkscape:groupmode="layer"
     id="layer4"
     inkscape:label="FrontTrees"
     transform="translate(7.6826209,-1.2421003)">
    <g
       id="g7"
       inkscape:label="Tree"
       transform="matrix(0.30461983,0,0,0.30461983,18.827421,89.92204)">
      <rect
         style="fill:#642c00;fill-opacity:1;stroke-width:0.289836"
         id="rect7"
         width="11.040893"
         height="86.855019"
         x="72.501854"
         y="90.535316"
         rx="0.60000002" />
      <path
         sodipodi:type="star"
         style="fill:#00ce17;fill-opacity:1;stroke-width:0.264583"
         id="path1"
         inkscape:flatsided="true"
         sodipodi:sides="3"
         sodipodi:cx="71.397774"
         sodipodi:cy="55.20446"
         sodipodi:r1="32.920738"
         sodipodi:r2="15.527192"
         sodipodi:arg1="0.51425664"
         sodipodi:arg2="1.5614542"
         inkscape:rounded="0.1"
         inkscape:randomized="0"
         d="m 100.0605,71.397769 c -2.804765,4.964529 -54.120878,5.443945 -57.017905,0.532684 -2.897027,-4.911261 22.345843,-49.592026 28.047633,-49.645294 5.701791,-0.05327 31.775032,44.14808 28.970272,49.11261 z"
         inkscape:transform-center-x="0.42878567"
         inkscape:transform-center-y="-7.116859"
         transform="matrix(1.1068977,0,0,0.95840857,-1.1109954,27.05698)" />
      <path
         sodipodi:type="star"
         style="fill:#00ce17;fill-opacity:1;stroke-width:0.264583"
         id="path6"
         inkscape:flatsided="true"
         sodipodi:sides="3"
         sodipodi:cx="71.397774"
         sodipodi:cy="55.20446"
         sodipodi:r1="32.920738"
         sodipodi:r2="15.527192"
         sodipodi:arg1="0.51425664"
         sodipodi:arg2="1.5614542"
         inkscape:rounded="0.1"
         inkscape:randomized="0"
         d="m 100.0605,71.397769 c -2.804765,4.964529 -54.120878,5.443945 -57.017905,0.532684 -2.897027,-4.911261 22.345843,-49.592026 28.047633,-49.645294 5.701791,-0.05327 31.775032,44.14808 28.970272,49.11261 z"
         inkscape:transform-center-x="0.55284586"
         inkscape:transform-center-y="-7.116859"
         transform="matrix(1.4271525,0,0,0.95840857,-23.654438,51.714974)" />
      <path
         sodipodi:type="star"
         style="fill:#00ce17;fill-opacity:1;stroke-width:0.264583"
         id="path7"
         inkscape:flatsided="true"
         sodipodi:sides="3"
         sodipodi:cx="71.397774"
         sodipodi:cy="55.20446"
         sodipodi:r1="32.920738"
         sodipodi:r2="15.527192"
         sodipodi:arg1="0.51425664"
         sodipodi:arg2="1.5614542"
         inkscape:rounded="0.1"
         inkscape:randomized="0"
         d="m 100.0605,71.397769 c -2.804765,4.964529 -54.120878,5.443945 -57.017905,0.532684 -2.897027,-4.911261 22.345843,-49.592026 28.047633,-49.645294 5.701791,-0.05327 31.775032,44.14808 28.970272,49.11261 z"
         inkscape:transform-center-x="0.62231927"
         inkscape:transform-center-y="-7.116859"
         transform="matrix(1.6064952,0,0,0.95840857,-36.116834,75.636906)" />
    </g>
    <g
       id="g9"
       inkscape:label="Tree"
       transform="matrix(0.32076163,0,0,0.32076163,104.36684,118.7503)">
      <rect
         style="fill:#642c00;fill-opacity:1;stroke-width:0.289836"
         id="rect1"
         width="11.040893"
         height="86.855019"
         x="72.501854"
         y="90.535316"
         rx="0.60000002" />
      <path
         sodipodi:type="star"
         style="fill:#00ce17;fill-opacity:1;stroke-width:0.264583"
         id="path5"
         inkscape:flatsided="true"
         sodipodi:sides="3"
         sodipodi:cx="71.397774"
         sodipodi:cy="55.20446"
         sodipodi:r1="32.920738"
         sodipodi:r2="15.527192"
         sodipodi:arg1="0.51425664"
         sodipodi:arg2="1.5614542"
         inkscape:rounded="0.1"
         inkscape:randomized="0"
         d="m 100.0605,71.397769 c -2.804765,4.964529 -54.120878,5.443945 -57.017905,0.532684 -2.897027,-4.911261 22.345843,-49.592026 28.047633,-49.645294 5.701791,-0.05327 31.775032,44.14808 28.970272,49.11261 z"
         inkscape:transform-center-x="0.42878567"
         inkscape:transform-center-y="-7.116859"
         transform="matrix(1.1068977,0,0,0.95840857,-1.1109954,27.05698)" />
      <path
         sodipodi:type="star"
         style="fill:#00ce17;fill-opacity:1;stroke-width:0.264583"
         id="path8"
         inkscape:flatsided="true"
         sodipodi:sides="3"
         sodipodi:cx="71.397774"
         sodipodi:cy="55.20446"
         sodipodi:r1="32.920738"
         sodipodi:r2="15.527192"
         sodipodi:arg1="0.51425664"
         sodipodi:arg2="1.5614542"
         inkscape:rounded="0.1"
         inkscape:randomized="0"
         d="m 100.0605,71.397769 c -2.804765,4.964529 -54.120878,5.443945 -57.017905,0.532684 -2.897027,-4.911261 22.345843,-49.592026 28.047633,-49.645294 5.701791,-0.05327 31.775032,44.14808 28.970272,49.11261 z"
         inkscape:transform-center-x="0.55284586"
         inkscape:transform-center-y="-7.116859"
         transform="matrix(1.4271525,0,0,0.95840857,-23.654438,51.714974)" />
      <path
         sodipodi:type="star"
         style="fill:#00ce17;fill-opacity:1;stroke-width:0.264583"
         id="path9"
         inkscape:flatsided="true"
         sodipodi:sides="3"
         sodipodi:cx="71.397774"
         sodipodi:cy="55.20446"
         sodipodi:r1="32.920738"
         sodipodi:r2="15.527192"
         sodipodi:arg1="0.51425664"
         sodipodi:arg2="1.5614542"
         inkscape:rounded="0.1"
         inkscape:randomized="0"
         d="m 100.0605,71.397769 c -2.804765,4.964529 -54.120878,5.443945 -57.017905,0.532684 -2.897027,-4.911261 22.345843,-49.592026 28.047633,-49.645294 5.701791,-0.05327 31.775032,44.14808 28.970272,49.11261 z"
         inkscape:transform-center-x="0.62231927"
         inkscape:transform-center-y="-7.116859"
         transform="matrix(1.6064952,0,0,0.95840857,-36.116834,75.636906)" />
    </g>
    <g
       id="g12"
       inkscape:label="Tree"
       transform="matrix(0.30182338,0,0,0.30182338,195.33667,46.019613)">
      <rect
         style="fill:#642c00;fill-opacity:1;stroke-width:0.289836"
         id="rect9"
         width="11.040893"
         height="86.855019"
         x="72.501854"
         y="90.535316"
         rx="0.60000002" />
      <path
         sodipodi:type="star"
         style="fill:#00ce17;fill-opacity:1;stroke-width:0.264583"
         id="path10"
         inkscape:flatsided="true"
         sodipodi:sides="3"
         sodipodi:cx="71.397774"
         sodipodi:cy="55.20446"
         sodipodi:r1="32.920738"
         sodipodi:r2="15.527192"
         sodipodi:arg1="0.51425664"
         sodipodi:arg2="1.5614542"
         inkscape:rounded="0.1"
         inkscape:randomized="0"
         d="m 100.0605,71.397769 c -2.804765,4.964529 -54.120878,5.443945 -57.017905,0.532684 -2.897027,-4.911261 22.345843,-49.592026 28.047633,-49.645294 5.701791,-0.05327 31.775032,44.14808 28.970272,49.11261 z"
         inkscape:transform-center-x="0.42878567"
         inkscape:transform-center-y="-7.116859"
         transform="matrix(1.1068977,0,0,0.95840857,-1.1109954,27.05698)" />
      <path
         sodipodi:type="star"
         style="fill:#00ce17;fill-opacity:1;stroke-width:0.264583"
         id="path11"
         inkscape:flatsided="true"
         sodipodi:sides="3"
         sodipodi:cx="71.397774"
         sodipodi:cy="55.20446"
         sodipodi:r1="32.920738"
         sodipodi:r2="15.527192"
         sodipodi:arg1="0.51425664"
         sodipodi:arg2="1.5614542"
         inkscape:rounded="0.1"
         inkscape:randomized="0"
         d="m 100.0605,71.397769 c -2.804765,4.964529 -54.120878,5.443945 -57.017905,0.532684 -2.897027,-4.911261 22.345843,-49.592026 28.047633,-49.645294 5.701791,-0.05327 31.775032,44.14808 28.970272,49.11261 z"
         inkscape:transform-center-x="0.55284586"
         inkscape:transform-center-y="-7.116859"
         transform="matrix(1.4271525,0,0,0.95840857,-23.654438,51.714974)" />
      <path
         sodipodi:type="star"
         style="fill:#00ce17;fill-opacity:1;stroke-width:0.264583"
         id="path12"
         inkscape:flatsided="true"
         sodipodi:sides="3"
         sodipodi:cx="71.397774"
         sodipodi:cy="55.20446"
         sodipodi:r1="32.920738"
         sodipodi:r2="15.527192"
         sodipodi:arg1="0.51425664"
         sodipodi:arg2="1.5614542"
         inkscape:rounded="0.1"
         inkscape:randomized="0"
         d="m 100.0605,71.397769 c -2.804765,4.964529 -54.120878,5.443945 -57.017905,0.532684 -2.897027,-4.911261 22.345843,-49.592026 28.047633,-49.645294 5.701791,-0.05327 31.775032,44.14808 28.970272,49.11261 z"
         inkscape:transform-center-x="0.62231927"
         inkscape:transform-center-y="-7.116859"
         transform="matrix(1.6064952,0,0,0.95840857,-36.116834,75.636906)" />
    </g>
  </g>
  <g
     inkscape:label="Front"
     inkscape:groupmode="layer"
     id="layer1">
    <path
       style="fill:#55d400;fill-opacity:0.50259066;stroke-width:0.264583"
       d="m -34.226764,178.49442 c 21.345723,12.88104 48.947953,-1.10409 58.148697,-17.66543 9.200743,-16.56133 25.76208,-27.2342 55.572491,-7.36059 29.810406,19.8736 43.427506,21.71375 61.828996,20.97769 18.40149,-0.73606 21.34572,-48.94795 62.19702,-69.55761 40.8513,-20.60967 55.94052,11.77695 65.50929,26.86617 9.56879,15.08921 44.89963,22.81784 44.89963,22.81784 l -0.36803,74.342 -351.100363,-4.04832 z"
       id="path2" />
  </g>
</svg>
