<?xml version="1.0" encoding="UTF-8" standalone="no"?>
<!-- Created with Inkscape (http://www.inkscape.org/) -->

<svg
   width="100mm"
   height="100mm"
   viewBox="0 0 100 100"
   version="1.1"
   id="svg1"
   inkscape:version="1.4.2 (f4327f4, 2025-05-13)"
   sodipodi:docname="SnowFlakeOwn.svg"
   inkscape:export-filename="SnowFlakeOwn.png"
   inkscape:export-xdpi="96"
   inkscape:export-ydpi="96"
   xmlns:inkscape="http://www.inkscape.org/namespaces/inkscape"
   xmlns:sodipodi="http://sodipodi.sourceforge.net/DTD/sodipodi-0.dtd"
   xmlns="http://www.w3.org/2000/svg"
   xmlns:svg="http://www.w3.org/2000/svg">
  <sodipodi:namedview
     id="namedview1"
     pagecolor="#ffffff"
     bordercolor="#000000"
     borderopacity="0.25"
     inkscape:showpageshadow="2"
     inkscape:pageopacity="0.0"
     inkscape:pagecheckerboard="0"
     inkscape:deskcolor="#d1d1d1"
     inkscape:document-units="mm"
     inkscape:zoom="1.4378367"
     inkscape:cx="167.61291"
     inkscape:cy="165.1787"
     inkscape:window-width="1920"
     inkscape:window-height="1009"
     inkscape:window-x="-8"
     inkscape:window-y="360"
     inkscape:window-maximized="1"
     inkscape:current-layer="layer2" />
  <defs
     id="defs1" />
  <g
     inkscape:groupmode="layer"
     id="layer2"
     inkscape:label="Layer 2"
     style="display:inline" />
  <g
     inkscape:label="Layer 1"
     inkscape:groupmode="layer"
     id="layer1"
     style="display:inline">
    <path
       id="path2"
       style="fill:#455295;fill-opacity:1;stroke-width:0.264583"
       d="m 14.833526,-45.61228 c -1.053717,0 -1.90183,0.92316 -1.90183,2.069758 v 9.622458 l -5.6560993,-9.796778 c -0.3941426,-0.682677 -1.0827016,-1.073303 -1.7710901,-1.079621 -0.3129047,-0.0029 -0.6259403,0.07359 -0.911112,0.238237 -0.9125462,0.526859 -1.1857422,1.750231 -0.6124439,2.743214 l 8.9507453,15.502849 v 9.563771 L 1.6009031,-42.618045 4.6886895,-14.855278 0.13254855,-22.747321 v -17.901491 c 1.13e-6,-1.146598 -0.84811249,-2.069756 -1.90183005,-2.069758 -0.3292876,0 -0.6386837,0.09029 -0.9082066,0.249277 -0.5930007,0.349667 -0.9942079,1.032192 -0.9942045,1.820481 l 5.811e-4,11.31278 -4.9960082,-8.653239 c -0.5732995,-0.992984 -1.7690733,-1.368244 -2.6816213,-0.841384 -0.912546,0.526857 -1.185743,1.750231 -0.612444,2.743214 l 5.0256429,8.704373 -9.8560469,-5.690382 c -0.682676,-0.394143 -1.474513,-0.388138 -2.073826,-0.04939 -0.272412,0.153966 -0.504746,0.376082 -0.669388,0.661254 -0.526859,0.912547 -0.151599,2.108904 0.841384,2.682202 l 15.561537,8.984447 4.8094859,8.330748 -22.9956989,-16.921232 16.5644569,22.5110896 -7.8560169,-4.5358036 -8.950745,-15.502849 c -0.573298,-0.992984 -1.769074,-1.368241 -2.681621,-0.841384 -0.285171,0.164644 -0.507913,0.397524 -0.661835,0.669969 -0.33872,0.59932 -0.344757,1.39115 0.04939,2.073826 l 5.656099,9.796778 -8.652658,-4.996008 c -0.992984,-0.5733 -2.216936,-0.300104 -2.743795,0.612444 -0.526859,0.912545 -0.151018,2.108322 0.841965,2.681621 l 8.703792,5.025642 h -11.380765 c -0.788286,0 -1.470834,0.401185 -1.82048,0.994205 -0.158934,0.269545 -0.248699,0.578339 -0.248697,0.9076253 0,1.0537186 0.92258,1.9018323 2.069177,1.90183 h 17.968895 l 8.2697359,4.7746219 -28.3595229,-3.154609 25.4663937,11.1541489 h -8.8670717 l -15.502849,-8.9507455 c -0.992983,-0.5732995 -2.216354,-0.3001012 -2.743214,0.6124439 -0.164643,0.2851717 -0.241161,0.5982062 -0.238238,0.911112 0.0063,0.6883862 0.39694,1.3769498 1.079622,1.77109013 l 9.796778,5.65609947 h -9.991436 c -1.146598,0 -2.069758,0.8481114 -2.069758,1.9018301 0,1.0537175 0.92316,1.90183 2.069758,1.90183 h 10.050704 l -9.856046,5.6903828 c -0.682676,0.394143 -1.073329,1.082697 -1.079622,1.77109 -0.0029,0.3129 0.07359,0.625361 0.238238,0.910531 0.526859,0.912547 1.750232,1.185744 2.743214,0.612444 L -17.89271,8.4913852 h 9.6149047 L -34.550719,19.998822 -6.7310067,16.904063 -14.503931,21.391638 h -17.90091 c -1.146598,-1e-6 -2.069756,0.848113 -2.069758,1.90183 2e-6,0.329288 0.09029,0.638684 0.249278,0.908207 0.349665,0.593001 1.032191,0.994209 1.82048,0.994205 h 11.31278 l -8.653239,4.995427 c -0.992984,0.573299 -1.368243,1.769655 -0.841384,2.682202 0.526858,0.912546 1.75023,1.185161 2.743214,0.611863 l 8.704373,-5.025062 -5.690382,9.856047 c -0.394143,0.682676 -0.388137,1.473932 -0.04939,2.073244 0.153966,0.272414 0.376082,0.504747 0.661254,0.669389 0.912547,0.526859 2.108905,0.152181 2.682202,-0.840803 L -12.550966,24.65665 -4.4317263,19.969188 -21.318094,42.917821 1.42426,26.183111 -3.1661639,34.133842 -18.669013,43.084587 c -0.992984,0.573298 -1.368241,1.769074 -0.841384,2.681621 0.164645,0.285171 0.397523,0.507913 0.669969,0.661835 0.59932,0.338721 1.39115,0.344758 2.073826,-0.04939 l 9.796778,-5.6561 -4.996008,8.652659 c -0.5733,0.992984 -0.300102,2.216937 0.612444,2.743795 0.912546,0.526859 2.1083213,0.151017 2.6816208,-0.841965 l 5.0256425,-8.703792 v 11.380764 c 1.1e-6,0.788287 0.4011892,1.470832 0.9942045,1.820481 0.2695454,0.158934 0.578339,0.248698 0.9076256,0.248697 1.05371863,-2e-6 1.90183225,-0.92258 1.90183,-2.069178 V 35.985119 L 4.7235535,28.076225 1.6009031,56.150444 12.931696,30.280791 v 9.194793 L 3.9809507,54.978433 c -0.5732995,0.992984 -0.3001012,2.216354 0.6124439,2.743214 0.2851717,0.164643 0.5982062,0.241161 0.911112,0.238238 0.6883885,-0.0063 1.3769475,-0.396945 1.7710901,-1.079622 l 5.6560993,-9.796778 v 9.991436 c 0,1.146597 0.848113,2.069758 1.90183,2.069758 1.053718,0 1.90183,-0.923161 1.90183,-2.069758 V 47.024217 l 5.690383,9.856046 c 0.394143,0.682676 1.082699,1.073325 1.77109,1.079622 0.3129,0.0029 0.625361,-0.07359 0.910531,-0.238238 0.912547,-0.52686 1.185744,-1.750231 0.612444,-2.743214 L 16.735356,39.416896 v -9.136105 l 11.330793,25.869653 -3.156933,-28.375792 4.793797,8.302856 v 17.968895 c -10e-7,1.146598 0.84811,2.069178 1.90183,2.069177 0.329284,10e-7 0.638078,-0.08976 0.907626,-0.248696 0.593014,-0.349649 0.9942,-1.032197 0.994204,-1.820481 V 42.665638 l 4.840864,8.384206 c 0.573298,0.992983 1.769657,1.368823 2.682202,0.841965 0.912544,-0.52686 1.18516,-1.750811 0.611863,-2.743795 l -4.811229,-8.333072 9.796778,5.656099 c 0.682676,0.394145 1.474505,0.388118 2.073825,0.04939 0.272444,-0.15392 0.505326,-0.376663 0.66997,-0.661834 0.526859,-0.912546 0.151598,-2.108322 -0.841384,-2.681621 L 33.026712,34.22623 28.486841,26.363241 50.985148,42.91782 34.073794,19.934904 l 8.33772,4.813553 8.984448,15.561537 c 0.573298,0.992984 1.769655,1.368245 2.682202,0.841384 0.285169,-0.164641 0.507285,-0.396973 0.661253,-0.669388 0.338741,-0.599311 0.344748,-1.391149 -0.04939,-2.073826 l -5.690383,-9.856046 8.384787,4.840863 c 0.992983,0.573298 2.216356,0.300682 2.743214,-0.611863 0.526857,-0.912546 0.151599,-2.108901 -0.841384,-2.682202 l -8.333653,-4.811229 11.31278,5.81e-4 c 0.788287,1e-6 1.470818,-0.401198 1.820481,-0.994204 0.158983,-0.269521 0.249277,-0.578919 0.249277,-0.908207 2e-6,-1.053716 -0.92316,-1.901829 -2.069758,-1.90183 H 44.363897 L 36.438734,16.908712 64.217771,19.998822 37.944858,8.4913852 h 9.832804 l 15.561537,8.9844478 c 0.992982,0.5733 2.216355,0.300104 2.743214,-0.612444 0.164643,-0.285169 0.241104,-0.597629 0.238237,-0.910531 -0.0063,-0.688389 -0.396949,-1.376944 -1.079621,-1.77109 L 55.384982,8.4913852 h 9.681727 c 1.146598,0 2.069758,-0.8481136 2.069758,-1.90183 -10e-7,-1.0537165 -0.923159,-1.901829 -2.069758,-1.9018301 h -9.622458 l 9.796778,-5.65609947 C 65.923705,-1.362517 66.314335,-2.0510738 66.32065,-2.7394645 66.32355,-3.052368 66.24706,-3.3654048 66.082413,-3.6505765 65.555556,-4.5631216 64.332182,-4.8363176 63.339199,-4.2630204 L 47.83635,4.6877251 h -9.084972 l 25.466393,-11.1541489 -28.317686,3.1499605 8.421394,-4.8623629 h 17.968895 c 1.146598,1.1e-6 2.069178,-0.8481103 2.069177,-1.9018298 10e-7,-0.329286 -0.08976,-0.638078 -0.248696,-0.907626 -0.349668,-0.593002 -1.032197,-0.9942 -1.820481,-0.994204 H 50.909609 l 8.384206,-4.840864 c 0.992984,-0.573298 1.368823,-1.769076 0.841965,-2.681621 -0.526859,-0.912545 -1.750811,-1.185742 -2.743795,-0.612444 l -8.333072,4.811229 5.6561,-9.796778 c 0.394143,-0.682675 0.388117,-1.473923 0.04939,-2.073244 -0.153964,-0.272419 -0.376663,-0.505326 -0.661834,-0.66997 -0.912545,-0.526859 -2.108321,-0.152179 -2.681621,0.840803 l -8.950746,15.503431 -8.075078,4.6618945 16.590024,-22.5453725 -22.751652,16.741101 4.758934,-8.243007 15.561536,-8.984447 c 0.992984,-0.573298 1.368245,-1.769074 0.841385,-2.681621 -0.164643,-0.28517 -0.396974,-0.507867 -0.669389,-0.661834 -0.599322,-0.338722 -1.391149,-0.344749 -2.073826,0.04939 l -9.856046,5.690383 4.840863,-8.384206 c 0.5733,-0.992983 0.300682,-2.216936 -0.611863,-2.743795 -0.912546,-0.526859 -2.108902,-0.151019 -2.682202,0.841965 l -4.811229,8.333072 V -40.74062 c 1e-6,-0.788287 -0.40062,-1.470815 -0.993623,-1.820481 -0.269547,-0.15894 -0.578919,-0.249278 -0.908207,-0.249277 -1.053717,-10e-7 -1.901829,0.922579 -1.90183,2.069177 v 17.901491 l -4.783919,8.286005 3.122069,-28.06434 -11.330793,25.869653 v -9.505083 l 8.984448,-15.561537 c 0.573299,-0.992983 0.300103,-2.216355 -0.612444,-2.743214 -0.285171,-0.164643 -0.597629,-0.241106 -0.910531,-0.238237 -0.688389,0.0063 -1.376947,0.396945 -1.77109,1.079621 l -5.690383,9.856047 v -9.681727 c 0,-1.146598 -0.848112,-2.069758 -1.90183,-2.069758 z m -7.7438705,23.477403 5.8420405,13.3383773 v 8.21743976 L 8.6655073,-7.9684802 Z m 15.4877415,0 -1.608973,14.4673891 -4.233068,7.33131368 V -8.7964997 Z m -28.9010762,7.743871 11.9775199,8.8136136 4.0802476,7.0675096 -7.6009284,-4.3882128 z m 42.3144112,0 -8.481825,11.5266123 -7.383029,4.2627024 4.131382,-7.1552505 z M -14.06755,-0.97767143 0.69618288,0.66442197 7.6649112,4.6877251 h -8.797344 z m 57.802152,0 L 30.799485,4.6877251 H 22.036424 L 29.012706,0.65977344 Z M -0.32591277,8.4913852 H 7.8403932 L 0.15521014,12.928408 -14.06755,14.51007 Z m 22.18627377,0 h 8.132604 L 43.734602,14.51007 29.553098,12.932475 Z M 9.7340883,11.790099 5.4004957,19.296313 -6.3236792,27.923405 2.4550706,15.992951 Z m 10.3917897,0.09181 7.060537,4.07618 8.804317,11.965318 -11.480127,-8.447542 z m -3.390522,1.734483 4.198204,7.272045 1.643837,14.778841 L 16.735356,22.3289 Z m -3.80366,0.242886 V 22.3289 L 7.0896555,35.667276 8.6997903,21.188846 Z"
       transform="matrix(0.88933795,0,0,0.88933795,36.808031,43.982611)" />
  </g>
</svg>
