<?xml version="1.0" encoding="UTF-8" standalone="no"?>
<!-- Created with Inkscape (http://www.inkscape.org/) -->

<svg
   width="1024"
   height="128"
   viewBox="0 0 270.93333 33.866666"
   version="1.1"
   id="svg1"
   sodipodi:docname="WebHeaderAlisterBrowne.svg"
   inkscape:version="1.4.2 (f4327f4, 2025-05-13)"
   inkscape:export-filename="WebHeaderAlisterBrowne.png"
   inkscape:export-xdpi="96"
   inkscape:export-ydpi="96"
   xmlns:inkscape="http://www.inkscape.org/namespaces/inkscape"
   xmlns:sodipodi="http://sodipodi.sourceforge.net/DTD/sodipodi-0.dtd"
   xmlns="http://www.w3.org/2000/svg"
   xmlns:svg="http://www.w3.org/2000/svg">
  <sodipodi:namedview
     id="namedview1"
     pagecolor="#ffffff"
     bordercolor="#000000"
     borderopacity="0.25"
     inkscape:showpageshadow="2"
     inkscape:pageopacity="0.0"
     inkscape:pagecheckerboard="0"
     inkscape:deskcolor="#d1d1d1"
     inkscape:document-units="mm"
     inkscape:zoom="1.0167041"
     inkscape:cx="503.09623"
     inkscape:cy="47.703162"
     inkscape:window-width="1920"
     inkscape:window-height="1009"
     inkscape:window-x="-8"
     inkscape:window-y="-8"
     inkscape:window-maximized="1"
     inkscape:current-layer="layer3"
     showguides="true"
     showgrid="false" />
  <defs
     id="defs1" />
  <g
     inkscape:groupmode="layer"
     id="layer2"
     inkscape:label="Layer 2">
    <rect
       style="fill:#fffeef;fill-opacity:1;stroke-width:0.264583"
       id="rect2"
       width="273.24814"
       height="37.734268"
       x="-1.0409453"
       y="-1.5614179" />
  </g>
  <g
     inkscape:groupmode="layer"
     id="layer4"
     inkscape:label="Layer 4">
    <path
       style="fill:#455294;fill-opacity:0.87;stroke-width:0.288393"
       id="path6"
       sodipodi:type="arc"
       sodipodi:cx="6.3757901"
       sodipodi:cy="36.563206"
       sodipodi:rx="19.908077"
       sodipodi:ry="27.715166"
       sodipodi:start="0"
       sodipodi:end="6.2827566"
       sodipodi:arc-type="slice"
       d="M 26.283867,36.563206 A 19.908077,27.715166 0 0 1 6.3779238,64.278372 19.908077,27.715166 0 0 1 -13.532287,36.569147 19.908077,27.715166 0 0 1 6.3693891,8.8480411 19.908077,27.715166 0 0 1 26.283866,36.551324 l -19.9080759,0.01188 z" />
    <path
       style="fill:#455294;fill-opacity:0.87;stroke-width:0.337869"
       id="path7"
       sodipodi:type="arc"
       sodipodi:cx="71.825226"
       sodipodi:cy="-2.4722426"
       sodipodi:rx="27.324812"
       sodipodi:ry="27.715166"
       sodipodi:start="0"
       sodipodi:end="6.2827566"
       sodipodi:arc-type="slice"
       d="M 99.150038,-2.4722426 A 27.324812,27.715166 0 0 1 71.828154,25.242923 27.324812,27.715166 0 0 1 44.500415,-2.4663017 27.324812,27.715166 0 0 1 71.81644,-30.187407 27.324812,27.715166 0 0 1 99.150035,-2.4841243 l -27.324809,0.011882 z" />
    <path
       style="fill:#455294;fill-opacity:0.87;stroke-width:0.237747"
       id="path8"
       sodipodi:type="arc"
       sodipodi:cx="136.36385"
       sodipodi:cy="46.97266"
       sodipodi:rx="25.503159"
       sodipodi:ry="14.70335"
       sodipodi:start="0"
       sodipodi:end="6.2827566"
       sodipodi:arc-type="slice"
       d="M 161.867,46.97266 A 25.503159,14.70335 0 0 1 136.36658,61.67601 25.503159,14.70335 0 0 1 110.86069,46.975812 25.503159,14.70335 0 0 1 136.35565,32.269311 25.503159,14.70335 0 0 1 161.867,46.966357 l -25.50315,0.0063 z" />
    <path
       style="fill:#455294;fill-opacity:0.87;stroke-width:0.43298"
       id="path9"
       sodipodi:type="arc"
       sodipodi:cx="266.61212"
       sodipodi:cy="-4.9444861"
       sodipodi:rx="48.273834"
       sodipodi:ry="25.763393"
       sodipodi:start="0"
       sodipodi:end="6.2827566"
       sodipodi:arc-type="slice"
       d="M 314.88596,-4.9444861 A 48.273834,25.763393 0 0 1 266.6173,20.818907 48.273834,25.763393 0 0 1 218.33829,-4.9389637 48.273834,25.763393 0 0 1 266.5966,-30.707878 48.273834,25.763393 0 0 1 314.88595,-4.9555311 l -48.27383,0.011045 z" />
    <path
       style="fill:#455294;fill-opacity:0.87;stroke-width:0.275286"
       id="path10"
       sodipodi:type="arc"
       sodipodi:cx="201.03255"
       sodipodi:cy="46.842541"
       sodipodi:rx="19.127371"
       sodipodi:ry="26.283867"
       sodipodi:start="0"
       sodipodi:end="6.2827566"
       sodipodi:arc-type="slice"
       d="m 220.15992,46.842541 a 19.127371,26.283867 0 0 1 -19.12532,26.283866 19.127371,26.283867 0 0 1 -19.12942,-26.278232 19.127371,26.283867 0 0 1 19.12122,-26.2895 19.127371,26.283867 0 0 1 19.13352,26.272598 l -19.12737,0.01127 z" />
    <path
       style="fill:#455294;fill-opacity:0.87;stroke-width:0.34658"
       id="path11"
       sodipodi:type="arc"
       sodipodi:cx="160.95616"
       sodipodi:cy="36.433086"
       sodipodi:rx="30.317533"
       sodipodi:ry="26.283867"
       sodipodi:start="0"
       sodipodi:end="6.2827566"
       sodipodi:arc-type="slice"
       d="M 191.27369,36.433086 A 30.317533,26.283867 0 0 1 160.95941,62.716953 30.317533,26.283867 0 0 1 130.63863,36.43872 30.317533,26.283867 0 0 1 160.94641,10.149221 30.317533,26.283867 0 0 1 191.27369,36.421818 l -30.31753,0.01127 z" />
    <path
       style="fill:#455294;fill-opacity:0.87;stroke-width:0.369614"
       id="path12"
       sodipodi:type="arc"
       sodipodi:cx="37.604141"
       sodipodi:cy="32.529541"
       sodipodi:rx="34.481316"
       sodipodi:ry="26.283867"
       sodipodi:start="0"
       sodipodi:end="6.2827566"
       sodipodi:arc-type="slice"
       d="M 72.085457,32.529541 A 34.481316,26.283867 0 0 1 37.607837,58.813408 34.481316,26.283867 0 0 1 3.1228264,32.535175 34.481316,26.283867 0 0 1 37.593054,6.2456755 34.481316,26.283867 0 0 1 72.085454,32.518273 l -34.481313,0.01127 z" />
    <path
       style="fill:#455294;fill-opacity:0.87;stroke-width:0.448967"
       id="path13"
       sodipodi:type="arc"
       sodipodi:cx="201.03255"
       sodipodi:cy="12.491344"
       sodipodi:rx="50.876202"
       sodipodi:ry="26.283867"
       sodipodi:start="0"
       sodipodi:end="6.2827566"
       sodipodi:arc-type="slice"
       d="M 251.90875,12.491344 A 50.876202,26.283867 0 0 1 201.038,38.775211 50.876202,26.283867 0 0 1 150.15635,12.496978 a 50.876202,26.283867 0 0 1 50.85984,-26.289499 50.876202,26.283867 0 0 1 50.89255,26.272597 l -50.87619,0.01127 z" />
  </g>
  <g
     inkscape:label="Layer 1"
     inkscape:groupmode="layer"
     id="layer1">
    <ellipse
       style="fill:#232787;fill-opacity:0.93000001;stroke-width:0.267642"
       id="path1"
       ry="16.525007"
       rx="40.076397"
       cy="1.4313004"
       cx="17.956308" />
    <ellipse
       style="fill:#232787;fill-opacity:0.93000001;stroke-width:0.263004"
       id="ellipse3"
       ry="18.47678"
       rx="34.611435"
       cy="36.172852"
       cx="88.480339" />
    <ellipse
       style="fill:#232787;fill-opacity:0.93000001;stroke-width:0.311893"
       id="ellipse4"
       ry="20.818907"
       rx="43.199234"
       cy="32.009071"
       cx="252.42924" />
    <ellipse
       style="fill:#232787;fill-opacity:0.93000001;stroke-width:0.333888"
       id="ellipse5"
       ry="22.250206"
       rx="46.322071"
       cy="-12.621458"
       cx="133.50125" />
    <ellipse
       style="fill:#232787;fill-opacity:0.93000001;stroke-width:0.321948"
       id="ellipse6"
       ry="22.250208"
       rx="43.069115"
       cy="-12.881696"
       cx="228.09715" />
    <ellipse
       style="fill:#232787;fill-opacity:0.93000001;stroke-width:0.321984"
       id="ellipse12"
       ry="21.729733"
       rx="44.110062"
       cy="17.305719"
       cx="122.70144" />
  </g>
  <g
     inkscape:groupmode="layer"
     id="layer3"
     inkscape:label="Layer 3">
    <text
       xml:space="preserve"
       style="font-style:normal;font-variant:normal;font-weight:900;font-stretch:normal;font-size:28.1333px;font-family:Arial;-inkscape-font-specification:'Arial, Heavy';font-variant-ligatures:normal;font-variant-caps:normal;font-variant-numeric:normal;font-variant-east-asian:normal;text-align:start;writing-mode:lr-tb;direction:ltr;text-anchor:start;fill:#f9faff;fill-opacity:1;stroke-width:2.34444"
       x="27.670151"
       y="22.374962"
       id="text10"
       transform="scale(0.95980604,1.0418772)"><tspan
         id="tspan10"
         style="font-style:normal;font-variant:normal;font-weight:900;font-stretch:normal;font-size:28.1333px;font-family:Arial;-inkscape-font-specification:'Arial, Heavy';font-variant-ligatures:normal;font-variant-caps:normal;font-variant-numeric:normal;font-variant-east-asian:normal;fill:#f9faff;fill-opacity:1;stroke-width:2.34444"
         x="27.670151"
         y="22.374962"
         sodipodi:role="line">Alister Browne</tspan></text>
    <text
       xml:space="preserve"
       style="font-style:normal;font-variant:normal;font-weight:900;font-stretch:normal;font-size:9.74691px;font-family:Arial;-inkscape-font-specification:'Arial, Heavy';font-variant-ligatures:normal;font-variant-caps:normal;font-variant-numeric:normal;font-variant-east-asian:normal;text-align:start;writing-mode:lr-tb;direction:ltr;text-anchor:start;fill:#f9faff;fill-opacity:1;stroke-width:0.071889"
       x="104.17126"
       y="34.427078"
       id="text1"
       transform="scale(1.0667649,0.93741367)"><tspan
         sodipodi:role="line"
         id="tspan1"
         style="font-style:normal;font-variant:normal;font-weight:900;font-stretch:normal;font-size:9.74691px;font-family:Arial;-inkscape-font-specification:'Arial, Heavy';font-variant-ligatures:normal;font-variant-caps:normal;font-variant-numeric:normal;font-variant-east-asian:normal;fill:#f9faff;fill-opacity:1;stroke-width:0.071889"
         x="104.17126"
         y="34.427078">Portfolio</tspan></text>
  </g>
</svg>
